<svg width="344" height="456" viewBox="0 0 344 456" fill="none" xmlns="http://www.w3.org/2000/svg">
<g opacity="0.6">
<path d="M114.95 437.992C114.95 437.651 114.822 437.373 114.566 437.16C114.32 436.947 114.006 436.755 113.622 436.584C113.248 436.403 112.838 436.221 112.39 436.04C111.952 435.848 111.542 435.619 111.158 435.352C110.784 435.075 110.47 434.733 110.214 434.328C109.968 433.923 109.846 433.405 109.846 432.776C109.846 432.232 109.936 431.763 110.118 431.368C110.299 430.963 110.555 430.627 110.886 430.36C111.227 430.093 111.627 429.896 112.086 429.768C112.544 429.64 113.056 429.576 113.622 429.576C114.272 429.576 114.886 429.635 115.462 429.752C116.038 429.859 116.512 430.019 116.886 430.232L116.198 432.072C115.963 431.923 115.611 431.789 115.142 431.672C114.672 431.544 114.166 431.48 113.622 431.48C113.11 431.48 112.715 431.581 112.438 431.784C112.171 431.987 112.038 432.259 112.038 432.6C112.038 432.92 112.16 433.187 112.406 433.4C112.662 433.613 112.976 433.811 113.35 433.992C113.734 434.173 114.144 434.36 114.582 434.552C115.03 434.744 115.44 434.979 115.814 435.256C116.198 435.523 116.512 435.859 116.758 436.264C117.014 436.659 117.142 437.155 117.142 437.752C117.142 438.349 117.04 438.867 116.838 439.304C116.646 439.731 116.368 440.088 116.006 440.376C115.654 440.664 115.222 440.877 114.71 441.016C114.208 441.155 113.654 441.224 113.046 441.224C112.246 441.224 111.542 441.149 110.934 441C110.326 440.851 109.878 440.701 109.59 440.552L110.294 438.68C110.411 438.744 110.56 438.813 110.742 438.888C110.934 438.963 111.147 439.032 111.382 439.096C111.616 439.16 111.862 439.213 112.118 439.256C112.384 439.299 112.656 439.32 112.934 439.32C113.584 439.32 114.08 439.213 114.422 439C114.774 438.776 114.95 438.44 114.95 437.992ZM120.202 429.8H126.842V431.752H122.394V434.36H126.442V436.312H122.394V439.048H126.922V441H120.202V429.8ZM138.114 431.752H134.85V441H132.658V431.752H129.378V429.8H138.114V431.752ZM148.646 435.16L147.766 433.4H147.686L147.942 435.16V441H145.862V429.72H147.462L151.702 435.688L152.55 437.4H152.63L152.374 435.688V429.8H154.454V441.08H152.854L148.646 435.16ZM157.977 429.8H164.617V431.752H160.169V434.36H164.217V436.312H160.169V439.048H164.697V441H157.977V429.8ZM170.849 436.056L171.057 438.04H171.121L171.345 436.024L173.297 429.8H174.737L176.657 436.056L176.881 438.04H176.945L177.185 436.024L178.545 429.8H180.769L177.681 441.08H176.209L174.209 434.856L173.937 433.144H173.857L173.585 434.872L171.601 441.08H170.049L166.977 429.8H169.361L170.849 436.056ZM195.917 431.752H192.653V441H190.461V431.752H187.181V429.8H195.917V431.752ZM198.882 429.8H201.074V441H198.882V429.8ZM213.509 435.192L213.749 432.968H213.653L212.965 434.76L210.581 438.936H209.877L207.365 434.744L206.661 432.968H206.581L206.901 435.176V441H204.821V429.8H206.821L209.813 434.92L210.341 436.2H210.405L210.885 434.888L213.717 429.8H215.701V441H213.509V435.192ZM219.218 429.8H225.858V431.752H221.41V434.36H225.458V436.312H221.41V439.048H225.938V441H219.218V429.8ZM229.177 429.912C229.423 429.869 229.684 429.832 229.961 429.8C230.249 429.757 230.532 429.725 230.809 429.704C231.097 429.683 231.375 429.667 231.641 429.656C231.908 429.645 232.153 429.64 232.377 429.64C232.9 429.64 233.412 429.688 233.913 429.784C234.425 429.88 234.879 430.045 235.273 430.28C235.679 430.515 235.999 430.84 236.233 431.256C236.479 431.661 236.601 432.173 236.601 432.792C236.601 433.709 236.388 434.456 235.961 435.032C235.535 435.608 234.964 436.008 234.249 436.232L235.033 436.728L237.593 441H235.065L232.521 436.616L231.369 436.408V441H229.177V429.912ZM232.537 431.592C232.313 431.592 232.089 431.597 231.865 431.608C231.652 431.619 231.487 431.64 231.369 431.672V434.92H232.297C232.905 434.92 233.391 434.781 233.753 434.504C234.116 434.227 234.297 433.768 234.297 433.128C234.297 432.648 234.148 432.275 233.849 432.008C233.551 431.731 233.113 431.592 232.537 431.592Z" fill="white"/>
<rect x="99.5" y="415.5" width="148" height="40" rx="4.5" stroke="white"/>
</g>
<circle cx="172" cy="172" r="172" fill="white" fill-opacity="0.02"/>
<circle cx="172" cy="172" r="117" fill="white" fill-opacity="0.03"/>
<circle cx="172" cy="172" r="76" fill="white" fill-opacity="0.04"/>
<path d="M152.683 128C152.453 128 152.28 128.057 152.107 128.115C147.093 130.005 142.541 132.983 138.738 136.706C134.992 140.487 131.995 145.011 130.093 149.995C129.805 150.796 130.209 151.656 130.958 151.942C131.707 152.228 132.629 151.827 132.917 151.083C134.704 146.501 137.412 142.319 140.927 138.883C144.385 135.389 148.592 132.697 153.202 130.921C154.009 130.635 154.354 129.718 154.066 128.974C153.836 128.401 153.26 128 152.683 128ZM192.215 128C191.351 128 190.717 128.745 190.717 129.546C190.717 130.177 191.121 130.692 191.697 130.921C196.307 132.697 200.514 135.389 203.971 138.883C207.487 142.377 210.195 146.501 211.924 151.083C212.212 151.885 213.076 152.286 213.883 151.999C214.69 151.713 215.093 150.854 214.805 150.052C214.805 150.052 214.805 150.052 214.805 149.995C212.904 145.011 209.907 140.487 206.161 136.706C202.358 132.926 197.805 130.005 192.792 128.115C192.619 128.057 192.446 128 192.215 128ZM172.449 139.341C168.876 139.341 165.88 142.262 165.88 145.871C165.88 147.417 166.456 148.792 167.378 149.937C157.293 152.228 149.802 161.164 149.802 171.875V189.344H149.226C145.768 189.344 142.944 192.151 142.944 195.588C142.944 199.024 145.768 201.831 149.226 201.831H160.693V202.117C160.693 208.131 165.649 213.057 171.7 213.057C177.751 213.057 182.707 208.131 182.707 202.117V201.831H195.731C199.188 201.831 202.012 199.024 202.012 195.588C202.012 192.151 199.131 189.287 195.673 189.287H195.097V171.817C195.097 161.106 187.605 152.171 177.521 149.88C178.443 148.792 179.019 147.36 179.019 145.813C179.019 142.262 176.08 139.341 172.449 139.341ZM156.717 140.2C156.544 140.2 156.314 140.257 156.141 140.315C153.087 141.575 150.263 143.465 147.9 145.813C145.538 148.162 143.636 150.968 142.368 154.004C142.022 154.749 142.368 155.665 143.117 156.009C143.866 156.352 144.788 156.009 145.134 155.264C145.134 155.207 145.192 155.207 145.192 155.15C146.287 152.458 147.958 149.995 150.032 147.933C152.107 145.871 154.585 144.21 157.293 143.121C158.1 142.835 158.446 141.918 158.158 141.174C157.927 140.544 157.351 140.2 156.717 140.2ZM188.182 140.2C187.317 140.2 186.683 140.887 186.683 141.747C186.683 142.319 187.029 142.892 187.605 143.121C190.314 144.21 192.792 145.871 194.866 147.933C196.941 149.995 198.612 152.458 199.707 155.15C200.053 155.951 200.917 156.295 201.724 156.009C202.531 155.665 202.877 154.806 202.588 154.004C201.321 150.911 199.419 148.104 197.056 145.756C194.693 143.408 191.87 141.518 188.758 140.257C188.585 140.257 188.354 140.2 188.182 140.2ZM172.449 142.377C174.409 142.377 175.965 143.923 175.965 145.871C175.965 147.818 174.409 149.307 172.449 149.307C170.49 149.307 168.934 147.761 168.934 145.813C168.992 143.923 170.49 142.377 172.449 142.377ZM172.449 152.343C183.341 152.343 192.043 160.992 192.043 171.817V189.287H152.856V171.817C152.856 160.992 161.558 152.343 172.449 152.343ZM149.226 192.323H151.3H193.541H195.615C197.402 192.323 198.843 193.755 198.843 195.53C198.843 197.306 197.402 198.738 195.615 198.738H149.226C147.439 198.738 145.999 197.363 145.999 195.53C145.999 193.697 147.439 192.323 149.226 192.323ZM163.748 201.774H179.653V202.06C179.653 206.47 176.138 209.964 171.7 209.964C167.263 209.964 163.748 206.47 163.748 202.06V201.774Z" fill="white"/>
<path d="M102.119 250.192H94.7748V271H89.8428V250.192H82.4628V245.8H102.119V250.192ZM108.576 253H113.256V271H108.576V253ZM107.892 247.924C107.892 247.228 108.144 246.64 108.648 246.16C109.176 245.656 109.896 245.404 110.808 245.404C111.72 245.404 112.452 245.656 113.004 246.16C113.58 246.64 113.868 247.228 113.868 247.924C113.868 248.62 113.58 249.208 113.004 249.688C112.452 250.144 111.72 250.372 110.808 250.372C109.896 250.372 109.176 250.144 108.648 249.688C108.144 249.208 107.892 248.62 107.892 247.924ZM131.672 271V261.208C131.672 259.552 131.516 258.376 131.204 257.68C130.892 256.984 130.244 256.636 129.26 256.636C128.444 256.636 127.784 256.864 127.28 257.32C126.776 257.752 126.392 258.316 126.128 259.012V271H121.448V253H125.084L125.624 255.376H125.768C126.32 254.608 127.016 253.936 127.856 253.36C128.72 252.784 129.824 252.496 131.168 252.496C132.32 252.496 133.256 252.736 133.976 253.216C134.72 253.672 135.296 254.452 135.704 255.556C136.256 254.62 136.964 253.876 137.828 253.324C138.692 252.772 139.736 252.496 140.96 252.496C141.968 252.496 142.82 252.616 143.516 252.856C144.236 253.096 144.812 253.516 145.244 254.116C145.7 254.692 146.036 255.472 146.252 256.456C146.468 257.44 146.576 258.688 146.576 260.2V271H141.896V260.884C141.896 259.468 141.74 258.412 141.428 257.716C141.14 256.996 140.48 256.636 139.448 256.636C138.608 256.636 137.936 256.864 137.432 257.32C136.952 257.776 136.592 258.4 136.352 259.192V271H131.672ZM168.416 269.452C167.696 270.028 166.712 270.52 165.464 270.928C164.24 271.312 162.932 271.504 161.54 271.504C158.636 271.504 156.512 270.664 155.168 268.984C153.824 267.28 153.152 264.952 153.152 262C153.152 258.832 153.908 256.456 155.42 254.872C156.932 253.288 159.056 252.496 161.792 252.496C162.704 252.496 163.592 252.616 164.456 252.856C165.32 253.096 166.088 253.492 166.76 254.044C167.432 254.596 167.972 255.34 168.38 256.276C168.788 257.212 168.992 258.376 168.992 259.768C168.992 260.272 168.956 260.812 168.884 261.388C168.836 261.964 168.752 262.564 168.632 263.188H157.832C157.904 264.7 158.288 265.84 158.984 266.608C159.704 267.376 160.856 267.76 162.44 267.76C163.424 267.76 164.3 267.616 165.068 267.328C165.86 267.016 166.46 266.704 166.868 266.392L168.416 269.452ZM161.72 256.24C160.496 256.24 159.584 256.612 158.984 257.356C158.408 258.076 158.06 259.048 157.94 260.272H164.636C164.732 258.976 164.528 257.98 164.024 257.284C163.544 256.588 162.776 256.24 161.72 256.24ZM183.35 266.032C183.35 265.552 183.146 265.168 182.738 264.88C182.33 264.592 181.826 264.328 181.226 264.088C180.626 263.848 179.966 263.608 179.246 263.368C178.526 263.104 177.866 262.756 177.266 262.324C176.666 261.868 176.162 261.304 175.754 260.632C175.346 259.936 175.142 259.048 175.142 257.968C175.142 256.192 175.67 254.836 176.726 253.9C177.782 252.964 179.306 252.496 181.298 252.496C182.666 252.496 183.902 252.64 185.006 252.928C186.11 253.216 186.974 253.54 187.598 253.9L186.554 257.284C186.002 257.068 185.306 256.84 184.466 256.6C183.626 256.36 182.774 256.24 181.91 256.24C180.518 256.24 179.822 256.78 179.822 257.86C179.822 258.292 180.026 258.64 180.434 258.904C180.842 259.168 181.346 259.42 181.946 259.66C182.546 259.876 183.206 260.116 183.926 260.38C184.646 260.644 185.306 260.992 185.906 261.424C186.506 261.832 187.01 262.372 187.418 263.044C187.826 263.716 188.03 264.58 188.03 265.636C188.03 267.46 187.442 268.9 186.266 269.956C185.114 270.988 183.374 271.504 181.046 271.504C179.774 271.504 178.574 271.336 177.446 271C176.342 270.688 175.442 270.316 174.746 269.884L176.042 266.392C176.594 266.704 177.326 267.016 178.238 267.328C179.15 267.616 180.086 267.76 181.046 267.76C181.742 267.76 182.294 267.628 182.702 267.364C183.134 267.1 183.35 266.656 183.35 266.032ZM211.891 253V263.224C211.891 264.688 212.059 265.744 212.395 266.392C212.755 267.04 213.439 267.364 214.447 267.364C215.335 267.364 216.067 267.1 216.643 266.572C217.243 266.044 217.687 265.396 217.975 264.628V253H222.655V265.528C222.655 266.512 222.703 267.484 222.799 268.444C222.895 269.38 223.039 270.232 223.231 271H219.703L218.875 268.336H218.731C218.179 269.248 217.411 270.004 216.427 270.604C215.443 271.204 214.279 271.504 212.935 271.504C212.023 271.504 211.207 271.384 210.487 271.144C209.767 270.904 209.167 270.508 208.687 269.956C208.207 269.404 207.835 268.66 207.571 267.724C207.331 266.788 207.211 265.612 207.211 264.196V253H211.891ZM230.362 253H233.782L234.322 255.16H234.466C235.09 254.248 235.822 253.576 236.662 253.144C237.526 252.712 238.57 252.496 239.794 252.496C242.05 252.496 243.742 253.216 244.87 254.656C245.998 256.072 246.562 258.364 246.562 261.532C246.562 263.068 246.382 264.46 246.022 265.708C245.662 266.932 245.122 267.976 244.402 268.84C243.706 269.704 242.842 270.364 241.81 270.82C240.802 271.276 239.638 271.504 238.318 271.504C237.574 271.504 236.962 271.444 236.482 271.324C236.002 271.228 235.522 271.06 235.042 270.82V278.2H230.362V253ZM238.39 256.456C237.478 256.456 236.758 256.684 236.23 257.14C235.726 257.596 235.33 258.28 235.042 259.192V266.68C235.378 266.944 235.738 267.16 236.122 267.328C236.53 267.472 237.058 267.544 237.706 267.544C239.05 267.544 240.058 267.076 240.73 266.14C241.402 265.18 241.738 263.608 241.738 261.424C241.738 259.84 241.474 258.616 240.946 257.752C240.418 256.888 239.566 256.456 238.39 256.456ZM254.951 245.8H259.775V257.644L258.839 263.512H255.887L254.951 257.644V245.8ZM254.447 268.624C254.447 267.784 254.711 267.124 255.239 266.644C255.767 266.14 256.463 265.888 257.327 265.888C258.239 265.888 258.959 266.14 259.487 266.644C260.015 267.124 260.279 267.784 260.279 268.624C260.279 269.464 260.015 270.136 259.487 270.64C258.959 271.144 258.239 271.396 257.327 271.396C256.463 271.396 255.767 271.144 255.239 270.64C254.711 270.136 254.447 269.464 254.447 268.624Z" fill="white"/>
</svg>
