<svg width="184" height="90" viewBox="0 0 184 90" fill="none" xmlns="http://www.w3.org/2000/svg">
<rect x="109.5" y="35" width="12" height="35" transform="rotate(-180 109.5 35)" fill="white"/>
<rect x="94.5" y="35" width="8" height="35" transform="rotate(-180 94.5 35)" fill="white"/>
<rect x="83.5" y="35" width="4" height="35" transform="rotate(-180 83.5 35)" fill="white"/>
<rect x="76.5" y="35" width="2" height="35" transform="rotate(-180 76.5 35)" fill="white"/>
<path d="M40.6016 61H37.7988V46.9961H40.6016V61ZM56.4102 61H53.4121L48.0117 51.7812V61H45.209V46.9961H48.207L53.6074 56.2246V46.9961H56.4102V61ZM66.8965 61H64.1035V49.7988H59.8945V46.9961H71.0957V49.7988H66.8965V61ZM84.1797 61H74.5801V46.9961H84.1797V49.7988H77.3828V52.6016H81.9824V55.4043H77.3828V58.1973H84.1797V61ZM90.9453 49.7988V55.4043H93.748C94.1322 55.4043 94.4935 55.3327 94.832 55.1895C95.1706 55.0397 95.4668 54.8379 95.7207 54.584C95.9746 54.3301 96.1732 54.0339 96.3164 53.6953C96.4661 53.3503 96.541 52.9857 96.541 52.6016C96.541 52.2174 96.4661 51.8561 96.3164 51.5176C96.1732 51.1725 95.9746 50.873 95.7207 50.6191C95.4668 50.3652 95.1706 50.1667 94.832 50.0234C94.4935 49.8737 94.1322 49.7988 93.748 49.7988H90.9453ZM90.9453 61H88.1426V46.9961H93.748C94.2624 46.9961 94.7572 47.0645 95.2324 47.2012C95.7077 47.3314 96.1504 47.5202 96.5605 47.7676C96.9772 48.0085 97.3548 48.3014 97.6934 48.6465C98.0384 48.985 98.3314 49.3626 98.5723 49.7793C98.8197 50.196 99.0085 50.6419 99.1387 51.1172C99.2754 51.5924 99.3438 52.0872 99.3438 52.6016C99.3438 53.0833 99.2819 53.5521 99.1582 54.0078C99.041 54.4635 98.8685 54.8965 98.6406 55.3066C98.4193 55.7168 98.1458 56.0944 97.8203 56.4395C97.4948 56.7845 97.1302 57.084 96.7266 57.3379L98.2793 61H95.3008L94.0801 58.1777L90.9453 58.1973V61ZM113.756 46.9961L109.156 61H106.354L101.773 46.9961H104.957L107.75 56.3418L110.553 46.9961H113.756ZM125.033 55.4043V52.6016C125.033 52.2174 124.958 51.8561 124.809 51.5176C124.665 51.1725 124.467 50.873 124.213 50.6191C123.959 50.3652 123.66 50.1667 123.314 50.0234C122.976 49.8737 122.615 49.7988 122.23 49.7988C121.846 49.7988 121.482 49.8737 121.137 50.0234C120.798 50.1667 120.502 50.3652 120.248 50.6191C119.994 50.873 119.792 51.1725 119.643 51.5176C119.499 51.8561 119.428 52.2174 119.428 52.6016V55.4043H125.033ZM127.836 61H125.033V58.1973H119.428V61H116.635V52.6016C116.635 51.8268 116.781 51.1009 117.074 50.4238C117.367 49.7402 117.764 49.1445 118.266 48.6367C118.773 48.1289 119.366 47.7285 120.043 47.4355C120.727 47.1426 121.456 46.9961 122.23 46.9961C123.005 46.9961 123.731 47.1426 124.408 47.4355C125.092 47.7285 125.688 48.1289 126.195 48.6367C126.703 49.1445 127.104 49.7402 127.396 50.4238C127.689 51.1009 127.836 51.8268 127.836 52.6016V61ZM142.072 61H132.268V46.9961H135.07V58.1973H142.072V61Z" fill="white"/>
<path d="M1.65953 76.2H6.99353V77.236H2.82153V80.582H6.71353V81.618H2.82153V86H1.65953V76.2ZM9.78795 82.5C9.78795 81.3147 10.0493 80.4093 10.5719 79.784C11.1039 79.1493 11.8646 78.832 12.8539 78.832C13.3766 78.832 13.8293 78.9207 14.2119 79.098C14.6039 79.266 14.9259 79.5133 15.1779 79.84C15.4299 80.1573 15.6166 80.5447 15.738 81.002C15.8593 81.45 15.9199 81.9493 15.9199 82.5C15.9199 83.6853 15.6539 84.5953 15.1219 85.23C14.5993 85.8553 13.8433 86.168 12.8539 86.168C12.3313 86.168 11.8739 86.084 11.4819 85.916C11.0993 85.7387 10.7819 85.4913 10.5299 85.174C10.2779 84.8473 10.0913 84.46 9.96995 84.012C9.84862 83.5547 9.78795 83.0507 9.78795 82.5ZM10.9499 82.5C10.9499 82.8547 10.9826 83.1953 11.0479 83.522C11.1226 83.8487 11.2346 84.1333 11.3839 84.376C11.5333 84.6187 11.7293 84.8147 11.9719 84.964C12.2146 85.1133 12.5086 85.188 12.8539 85.188C14.1233 85.1973 14.7579 84.3013 14.7579 82.5C14.7579 82.136 14.7206 81.7907 14.646 81.464C14.5806 81.1373 14.4733 80.8527 14.324 80.61C14.1746 80.3673 13.9786 80.176 13.736 80.036C13.4933 79.8867 13.1993 79.812 12.8539 79.812C11.5846 79.8027 10.9499 80.6987 10.9499 82.5ZM22.3898 80.078C22.1098 79.9847 21.8438 79.938 21.5918 79.938C21.1905 79.938 20.8731 80.05 20.6398 80.274C20.4065 80.4887 20.2618 80.764 20.2058 81.1V86H19.0858V79H19.8698L20.0798 79.854H20.1358C20.3131 79.5367 20.5231 79.294 20.7658 79.126C21.0178 78.9487 21.3351 78.86 21.7178 78.86C21.9885 78.86 22.2918 78.9067 22.6278 79L22.3898 80.078ZM30.264 79.518C30.6187 79.3033 31.0294 79.1447 31.496 79.042C31.972 78.9393 32.4667 78.888 32.98 78.888C33.4654 78.888 33.8527 78.9533 34.142 79.084C34.4407 79.2147 34.6647 79.3873 34.814 79.602C34.9727 79.8073 35.0754 80.036 35.122 80.288C35.178 80.54 35.206 80.792 35.206 81.044C35.206 81.604 35.192 82.15 35.164 82.682C35.136 83.214 35.122 83.718 35.122 84.194C35.122 84.5393 35.136 84.866 35.164 85.174C35.192 85.482 35.2434 85.7667 35.318 86.028H34.492L34.198 85.048H34.128C34.044 85.1787 33.9367 85.3093 33.806 85.44C33.6847 85.5613 33.5354 85.6733 33.358 85.776C33.1807 85.8693 32.9754 85.9487 32.742 86.014C32.5087 86.0793 32.2427 86.112 31.944 86.112C31.6454 86.112 31.3654 86.0653 31.104 85.972C30.852 85.8787 30.6327 85.748 30.446 85.58C30.2594 85.4027 30.11 85.1927 29.998 84.95C29.8954 84.7073 29.844 84.432 29.844 84.124C29.844 83.7133 29.928 83.3727 30.096 83.102C30.264 82.822 30.4974 82.6027 30.796 82.444C31.104 82.276 31.468 82.1593 31.888 82.094C32.3174 82.0193 32.7887 81.982 33.302 81.982C33.4327 81.982 33.5587 81.982 33.68 81.982C33.8107 81.982 33.9414 81.9913 34.072 82.01C34.1 81.73 34.114 81.478 34.114 81.254C34.114 80.7407 34.0114 80.3813 33.806 80.176C33.6007 79.9707 33.2274 79.868 32.686 79.868C32.5274 79.868 32.3547 79.882 32.168 79.91C31.9907 79.9287 31.804 79.9613 31.608 80.008C31.4214 80.0453 31.2394 80.0967 31.062 80.162C30.894 80.218 30.7447 80.2833 30.614 80.358L30.264 79.518ZM32.252 85.132C32.5134 85.132 32.7467 85.0993 32.952 85.034C33.1574 84.9593 33.3347 84.8707 33.484 84.768C33.6334 84.656 33.7547 84.5347 33.848 84.404C33.9507 84.2733 34.0254 84.1473 34.072 84.026V82.864C33.9414 82.8547 33.806 82.85 33.666 82.85C33.5354 82.8407 33.4047 82.836 33.274 82.836C32.9847 82.836 32.7 82.8547 32.42 82.892C32.1494 82.92 31.9067 82.9807 31.692 83.074C31.4867 83.158 31.3187 83.2793 31.188 83.438C31.0667 83.5873 31.006 83.7787 31.006 84.012C31.006 84.3387 31.1227 84.6093 31.356 84.824C31.5894 85.0293 31.888 85.132 32.252 85.132ZM39.9674 84.278C39.9674 84.6047 40.0234 84.838 40.1354 84.978C40.2474 85.118 40.406 85.188 40.6114 85.188C40.7327 85.188 40.8634 85.1787 41.0034 85.16C41.1434 85.1413 41.302 85.0993 41.4794 85.034L41.6054 85.916C41.456 85.9907 41.246 86.0513 40.9754 86.098C40.714 86.1447 40.4854 86.168 40.2894 86.168C39.8694 86.168 39.524 86.0513 39.2534 85.818C38.9827 85.5753 38.8474 85.1693 38.8474 84.6V76.2H39.9674V84.278ZM45.4552 84.278C45.4552 84.6047 45.5112 84.838 45.6232 84.978C45.7352 85.118 45.8939 85.188 46.0992 85.188C46.2206 85.188 46.3512 85.1787 46.4912 85.16C46.6312 85.1413 46.7899 85.0993 46.9672 85.034L47.0932 85.916C46.9439 85.9907 46.7339 86.0513 46.4632 86.098C46.2019 86.1447 45.9732 86.168 45.7772 86.168C45.3572 86.168 45.0119 86.0513 44.7412 85.818C44.4706 85.5753 44.3352 85.1693 44.3352 84.6V76.2H45.4552V84.278ZM56.6962 83.536L57.0882 84.88H57.1582L57.4662 83.522L58.8242 79H59.9582L57.8862 85.286C57.7275 85.7433 57.5688 86.1867 57.4102 86.616C57.2608 87.0453 57.0928 87.428 56.9062 87.764C56.7195 88.1 56.5095 88.366 56.2762 88.562C56.0428 88.7673 55.7722 88.87 55.4642 88.87C55.1282 88.87 54.8528 88.8233 54.6382 88.73L54.8342 87.764C54.9555 87.8107 55.0722 87.834 55.1842 87.834C55.4455 87.834 55.6975 87.694 55.9402 87.414C56.1828 87.1433 56.3835 86.672 56.5422 86L53.7282 79H55.0162L56.6962 83.536ZM62.0172 82.5C62.0172 81.3147 62.2786 80.4093 62.8012 79.784C63.3332 79.1493 64.0939 78.832 65.0832 78.832C65.6059 78.832 66.0586 78.9207 66.4412 79.098C66.8332 79.266 67.1552 79.5133 67.4072 79.84C67.6592 80.1573 67.8459 80.5447 67.9672 81.002C68.0886 81.45 68.1492 81.9493 68.1492 82.5C68.1492 83.6853 67.8832 84.5953 67.3512 85.23C66.8286 85.8553 66.0726 86.168 65.0832 86.168C64.5606 86.168 64.1032 86.084 63.7112 85.916C63.3286 85.7387 63.0112 85.4913 62.7592 85.174C62.5072 84.8473 62.3206 84.46 62.1992 84.012C62.0779 83.5547 62.0172 83.0507 62.0172 82.5ZM63.1792 82.5C63.1792 82.8547 63.2119 83.1953 63.2772 83.522C63.3519 83.8487 63.4639 84.1333 63.6132 84.376C63.7626 84.6187 63.9586 84.8147 64.2012 84.964C64.4439 85.1133 64.7379 85.188 65.0832 85.188C66.3526 85.1973 66.9872 84.3013 66.9872 82.5C66.9872 82.136 66.9499 81.7907 66.8752 81.464C66.8099 81.1373 66.7026 80.8527 66.5532 80.61C66.4039 80.3673 66.2079 80.176 65.9652 80.036C65.7226 79.8867 65.4286 79.812 65.0832 79.812C63.8139 79.8027 63.1792 80.6987 63.1792 82.5ZM72.3231 79V82.99C72.3231 83.354 72.3418 83.676 72.3791 83.956C72.4258 84.2267 72.5004 84.4553 72.6031 84.642C72.7058 84.8193 72.8458 84.9547 73.0231 85.048C73.2004 85.1413 73.4244 85.188 73.6951 85.188C73.9471 85.188 74.1711 85.1507 74.3671 85.076C74.5631 84.992 74.7358 84.88 74.8851 84.74C75.0438 84.6 75.1791 84.4413 75.2911 84.264C75.4124 84.0773 75.5104 83.8813 75.5851 83.676V79H76.7051V84.012C76.7051 84.348 76.7144 84.698 76.7331 85.062C76.7611 85.4167 76.8031 85.7293 76.8591 86H76.0891L75.8091 84.894H75.7391C75.5244 85.258 75.2351 85.5613 74.8711 85.804C74.5071 86.0467 74.0451 86.168 73.4851 86.168C73.1118 86.168 72.7804 86.1213 72.4911 86.028C72.2111 85.944 71.9731 85.79 71.7771 85.566C71.5904 85.342 71.4458 85.0433 71.3431 84.67C71.2498 84.2873 71.2031 83.8067 71.2031 83.228V79H72.3231ZM83.566 80.078C83.286 79.9847 83.02 79.938 82.768 79.938C82.3666 79.938 82.0493 80.05 81.816 80.274C81.5826 80.4887 81.438 80.764 81.382 81.1V86H80.262V79H81.046L81.256 79.854H81.312C81.4893 79.5367 81.6993 79.294 81.942 79.126C82.194 78.9487 82.5113 78.86 82.894 78.86C83.1646 78.86 83.468 78.9067 83.804 79L83.566 80.078ZM90.6282 79H91.7202V77.614L92.8402 77.292V79H94.7442V79.98H92.8402V83.858C92.8402 84.3433 92.9009 84.6887 93.0222 84.894C93.1435 85.09 93.3489 85.188 93.6382 85.188C93.8809 85.188 94.0862 85.1647 94.2542 85.118C94.4222 85.062 94.6089 84.992 94.8142 84.908L95.0662 85.762C94.8142 85.8833 94.5389 85.9813 94.2402 86.056C93.9415 86.1307 93.6195 86.168 93.2742 86.168C92.7049 86.168 92.3035 86.0093 92.0702 85.692C91.8369 85.3653 91.7202 84.824 91.7202 84.068V79.98H90.6282V79ZM97.9344 79H99.0544V86H97.9344V79ZM97.6964 76.872C97.6964 76.6573 97.7664 76.4753 97.9064 76.326C98.0557 76.1673 98.2424 76.088 98.4664 76.088C98.6904 76.088 98.8817 76.1673 99.0404 76.326C99.199 76.4753 99.2784 76.6573 99.2784 76.872C99.2784 77.0867 99.199 77.264 99.0404 77.404C98.8817 77.544 98.6904 77.614 98.4664 77.614C98.2424 77.614 98.0557 77.544 97.9064 77.404C97.7664 77.264 97.6964 77.0867 97.6964 76.872ZM106.944 86V82.038C106.944 81.6647 106.926 81.3427 106.888 81.072C106.86 80.792 106.8 80.5587 106.706 80.372C106.613 80.1853 106.478 80.0453 106.3 79.952C106.132 79.8587 105.908 79.812 105.628 79.812C105.199 79.812 104.84 79.9427 104.55 80.204C104.27 80.4653 104.074 80.792 103.962 81.184V86H102.842V79H103.626L103.836 79.854H103.892C104.144 79.5553 104.434 79.3127 104.76 79.126C105.096 78.93 105.53 78.832 106.062 78.832C106.51 78.832 106.874 78.9207 107.154 79.098C107.444 79.266 107.668 79.5647 107.826 79.994C108.041 79.63 108.335 79.3453 108.708 79.14C109.091 78.9347 109.52 78.832 109.996 78.832C110.388 78.832 110.72 78.8787 110.99 78.972C111.261 79.056 111.485 79.21 111.662 79.434C111.84 79.658 111.966 79.9613 112.04 80.344C112.124 80.7267 112.166 81.212 112.166 81.8V86H111.046V81.786C111.046 81.45 111.028 81.1607 110.99 80.918C110.962 80.666 110.897 80.4607 110.794 80.302C110.701 80.134 110.566 80.0127 110.388 79.938C110.22 79.854 109.996 79.812 109.716 79.812C109.25 79.812 108.886 79.9427 108.624 80.204C108.363 80.4653 108.176 80.8387 108.064 81.324V86H106.944ZM115.842 79H116.962V86H115.842V79ZM115.604 76.872C115.604 76.6573 115.674 76.4753 115.814 76.326C115.963 76.1673 116.15 76.088 116.374 76.088C116.598 76.088 116.789 76.1673 116.948 76.326C117.106 76.4753 117.186 76.6573 117.186 76.872C117.186 77.0867 117.106 77.264 116.948 77.404C116.789 77.544 116.598 77.614 116.374 77.614C116.15 77.614 115.963 77.544 115.814 77.404C115.674 77.264 115.604 77.0867 115.604 76.872ZM125.244 86V82.01C125.244 81.282 125.137 80.736 124.922 80.372C124.717 79.9987 124.334 79.812 123.774 79.812C123.279 79.812 122.869 79.9473 122.542 80.218C122.225 80.4793 122.001 80.8107 121.87 81.212V86H120.75V79H121.534L121.744 79.854H121.8C122.024 79.5553 122.323 79.3127 122.696 79.126C123.079 78.93 123.531 78.832 124.054 78.832C124.437 78.832 124.773 78.8787 125.062 78.972C125.351 79.056 125.589 79.21 125.776 79.434C125.972 79.658 126.117 79.9613 126.21 80.344C126.313 80.7173 126.364 81.1933 126.364 81.772V86H125.244ZM135.168 86.322C135.168 87.2273 134.925 87.8947 134.44 88.324C133.964 88.7533 133.255 88.968 132.312 88.968C131.752 88.968 131.299 88.9307 130.954 88.856C130.618 88.7907 130.329 88.702 130.086 88.59L130.38 87.638C130.595 87.722 130.833 87.8013 131.094 87.876C131.355 87.9507 131.696 87.988 132.116 87.988C132.508 87.988 132.825 87.9507 133.068 87.876C133.32 87.8107 133.521 87.694 133.67 87.526C133.819 87.3673 133.922 87.1573 133.978 86.896C134.034 86.644 134.062 86.3407 134.062 85.986V85.314H134.006C133.819 85.5847 133.581 85.7947 133.292 85.944C133.003 86.084 132.625 86.154 132.158 86.154C131.215 86.154 130.52 85.86 130.072 85.272C129.633 84.684 129.414 83.7693 129.414 82.528C129.414 81.3333 129.699 80.428 130.268 79.812C130.837 79.1867 131.677 78.874 132.788 78.874C133.32 78.874 133.773 78.916 134.146 79C134.529 79.084 134.869 79.182 135.168 79.294V86.322ZM132.354 85.174C132.83 85.174 133.203 85.0573 133.474 84.824C133.745 84.5813 133.936 84.208 134.048 83.704V80.12C133.675 79.9427 133.199 79.854 132.62 79.854C131.985 79.854 131.486 80.0687 131.122 80.498C130.758 80.9273 130.576 81.5993 130.576 82.514C130.576 82.906 130.609 83.2653 130.674 83.592C130.739 83.9187 130.842 84.1987 130.982 84.432C131.122 84.6653 131.304 84.8473 131.528 84.978C131.752 85.1087 132.027 85.174 132.354 85.174ZM148.352 86V82.01C148.352 81.282 148.245 80.736 148.03 80.372C147.825 79.9987 147.442 79.812 146.882 79.812C146.387 79.812 145.977 79.9473 145.65 80.218C145.333 80.4793 145.109 80.8107 144.978 81.212V86H143.858V79H144.642L144.852 79.854H144.908C145.132 79.5553 145.431 79.3127 145.804 79.126C146.187 78.93 146.639 78.832 147.162 78.832C147.545 78.832 147.881 78.8787 148.17 78.972C148.459 79.056 148.697 79.21 148.884 79.434C149.08 79.658 149.225 79.9613 149.318 80.344C149.421 80.7173 149.472 81.1933 149.472 81.772V86H148.352ZM158.024 85.44C157.744 85.664 157.39 85.8413 156.96 85.972C156.54 86.1027 156.092 86.168 155.616 86.168C155.084 86.168 154.622 86.084 154.23 85.916C153.838 85.7387 153.516 85.4913 153.264 85.174C153.012 84.8473 152.826 84.46 152.704 84.012C152.583 83.564 152.522 83.06 152.522 82.5C152.522 81.3053 152.788 80.3953 153.32 79.77C153.852 79.1447 154.613 78.832 155.602 78.832C155.92 78.832 156.237 78.8693 156.554 78.944C156.872 79.0093 157.156 79.14 157.408 79.336C157.66 79.532 157.866 79.812 158.024 80.176C158.183 80.5307 158.262 81.002 158.262 81.59C158.262 81.898 158.234 82.2387 158.178 82.612H153.684C153.684 83.0227 153.726 83.3867 153.81 83.704C153.894 84.0213 154.025 84.292 154.202 84.516C154.38 84.7307 154.608 84.8987 154.888 85.02C155.178 85.132 155.528 85.188 155.938 85.188C156.256 85.188 156.573 85.132 156.89 85.02C157.208 84.908 157.446 84.7773 157.604 84.628L158.024 85.44ZM155.616 79.812C155.066 79.812 154.622 79.9567 154.286 80.246C153.96 80.5353 153.764 81.03 153.698 81.73H157.17C157.17 81.0207 157.035 80.526 156.764 80.246C156.494 79.9567 156.111 79.812 155.616 79.812ZM166.383 85.44C166.103 85.664 165.749 85.8413 165.319 85.972C164.899 86.1027 164.451 86.168 163.975 86.168C163.443 86.168 162.981 86.084 162.589 85.916C162.197 85.7387 161.875 85.4913 161.623 85.174C161.371 84.8473 161.185 84.46 161.063 84.012C160.942 83.564 160.881 83.06 160.881 82.5C160.881 81.3053 161.147 80.3953 161.679 79.77C162.211 79.1447 162.972 78.832 163.961 78.832C164.279 78.832 164.596 78.8693 164.913 78.944C165.231 79.0093 165.515 79.14 165.767 79.336C166.019 79.532 166.225 79.812 166.383 80.176C166.542 80.5307 166.621 81.002 166.621 81.59C166.621 81.898 166.593 82.2387 166.537 82.612H162.043C162.043 83.0227 162.085 83.3867 162.169 83.704C162.253 84.0213 162.384 84.292 162.561 84.516C162.739 84.7307 162.967 84.8987 163.247 85.02C163.537 85.132 163.887 85.188 164.297 85.188C164.615 85.188 164.932 85.132 165.249 85.02C165.567 84.908 165.805 84.7773 165.963 84.628L166.383 85.44ZM163.975 79.812C163.425 79.812 162.981 79.9567 162.645 80.246C162.319 80.5353 162.123 81.03 162.057 81.73H165.529C165.529 81.0207 165.394 80.526 165.123 80.246C164.853 79.9567 164.47 79.812 163.975 79.812ZM175.159 83.592C175.159 84.068 175.163 84.502 175.173 84.894C175.182 85.2767 175.224 85.6547 175.299 86.028H174.543L174.263 85.034H174.207C174.02 85.3607 173.749 85.6313 173.395 85.846C173.04 86.0607 172.625 86.168 172.149 86.168C171.215 86.168 170.52 85.874 170.063 85.286C169.615 84.698 169.391 83.7787 169.391 82.528C169.391 81.3333 169.671 80.428 170.231 79.812C170.8 79.1867 171.579 78.874 172.569 78.874C172.914 78.874 173.185 78.8927 173.381 78.93C173.586 78.9673 173.805 79.028 174.039 79.112V76.2H175.159V83.592ZM172.331 85.188C172.807 85.188 173.185 85.0667 173.465 84.824C173.745 84.572 173.936 84.194 174.039 83.69V80.218C173.871 80.0873 173.679 79.994 173.465 79.938C173.25 79.882 172.965 79.854 172.611 79.854C171.967 79.854 171.463 80.0687 171.099 80.498C170.735 80.918 170.553 81.5947 170.553 82.528C170.553 82.9107 170.581 83.2653 170.637 83.592C170.702 83.9187 170.805 84.1987 170.945 84.432C171.085 84.6653 171.267 84.852 171.491 84.992C171.724 85.1227 172.004 85.188 172.331 85.188ZM181.796 84.096C181.796 83.816 181.712 83.5967 181.544 83.438C181.376 83.2793 181.166 83.1487 180.914 83.046C180.671 82.934 180.401 82.8313 180.102 82.738C179.813 82.6353 179.542 82.5093 179.29 82.36C179.047 82.2013 178.842 82.0007 178.674 81.758C178.506 81.5153 178.422 81.1887 178.422 80.778C178.422 80.106 178.613 79.616 178.996 79.308C179.379 78.9907 179.911 78.832 180.592 78.832C181.096 78.832 181.516 78.8787 181.852 78.972C182.197 79.056 182.496 79.1587 182.748 79.28L182.482 80.204C182.267 80.1013 182.006 80.0127 181.698 79.938C181.399 79.854 181.077 79.812 180.732 79.812C180.321 79.812 180.018 79.882 179.822 80.022C179.635 80.162 179.542 80.4047 179.542 80.75C179.542 80.9927 179.626 81.184 179.794 81.324C179.962 81.4547 180.167 81.576 180.41 81.688C180.662 81.7907 180.933 81.8933 181.222 81.996C181.521 82.0987 181.791 82.234 182.034 82.402C182.286 82.57 182.496 82.7847 182.664 83.046C182.832 83.298 182.916 83.634 182.916 84.054C182.916 84.3527 182.865 84.6327 182.762 84.894C182.669 85.1553 182.519 85.3793 182.314 85.566C182.109 85.7527 181.852 85.8973 181.544 86C181.245 86.112 180.891 86.168 180.48 86.168C179.948 86.168 179.495 86.1167 179.122 86.014C178.749 85.9113 178.436 85.79 178.184 85.65L178.52 84.698C178.735 84.8193 179.015 84.9313 179.36 85.034C179.705 85.1367 180.055 85.188 180.41 85.188C180.811 85.188 181.143 85.1087 181.404 84.95C181.665 84.7913 181.796 84.5067 181.796 84.096Z" fill="white"/>
</svg>
