<svg width="60" height="52" viewBox="0 0 89 52" fill="none" xmlns="http://www.w3.org/2000/svg">
<path fill-rule="evenodd" clip-rule="evenodd" d="M1 8.14286V1H88V8.14286H1ZM1 22.4286H88V15.2857H1V22.4286ZM88 36.7143H1V29.5714H88V36.7143ZM88 51H1V43.8571H88V51Z" fill="#666"/>
<path d="M1 1V0.5H0.5V1H1ZM1 8.14286H0.5V8.64286H1V8.14286ZM88 1H88.5V0.5H88V1ZM88 8.14286V8.64286H88.5V8.14286H88ZM88 22.4286V22.9286H88.5V22.4286H88ZM1 22.4286H0.5V22.9286H1V22.4286ZM88 15.2857H88.5V14.7857H88V15.2857ZM1 15.2857V14.7857H0.5V15.2857H1ZM1 36.7143H0.5V37.2143H1V36.7143ZM88 36.7143V37.2143H88.5V36.7143H88ZM1 29.5714V29.0714H0.5V29.5714H1ZM88 29.5714H88.5V29.0714H88V29.5714ZM1 51H0.5V51.5H1V51ZM88 51V51.5H88.5V51H88ZM1 43.8571V43.3571H0.5V43.8571H1ZM88 43.8571H88.5V43.3571H88V43.8571ZM0.5 1V8.14286H1.5V1H0.5ZM88 0.5H1V1.5H88V0.5ZM88.5 8.14286V1H87.5V8.14286H88.5ZM1 8.64286H88V7.64286H1V8.64286ZM88 21.9286H1V22.9286H88V21.9286ZM87.5 15.2857V22.4286H88.5V15.2857H87.5ZM1 15.7857H88V14.7857H1V15.7857ZM1.5 22.4286V15.2857H0.5V22.4286H1.5ZM1 37.2143H88V36.2143H1V37.2143ZM0.5 29.5714V36.7143H1.5V29.5714H0.5ZM88 29.0714H1V30.0714H88V29.0714ZM88.5 36.7143V29.5714H87.5V36.7143H88.5ZM1 51.5H88V50.5H1V51.5ZM0.5 43.8571V51H1.5V43.8571H0.5ZM88 43.3571H1V44.3571H88V43.3571ZM88.5 51V43.8571H87.5V51H88.5Z" fill="#151414"/>
</svg>
